<mxfile host="app.diagrams.net" modified="2023-10-16T15:51:13.891Z" agent="Mozilla/5.0 (Windows NT 10.0; Win64; x64; rv:109.0) Gecko/20100101 Firefox/118.0" etag="8jWPtlea0-FVkt7iyFSu" version="22.0.4" type="github">
  <diagram id="R2lEEEUBdFMjLlhIrx00" name="Page-1">
    <mxGraphModel dx="1115" dy="637" grid="1" gridSize="10" guides="1" tooltips="1" connect="1" arrows="1" fold="1" page="1" pageScale="1" pageWidth="850" pageHeight="1100" math="0" shadow="0" extFonts="Permanent Marker^https://fonts.googleapis.com/css?family=Permanent+Marker">
      <root>
        <mxCell id="0" />
        <mxCell id="1" parent="0" />
        <mxCell id="3SikMaQqx24hYYzQRcf_-10" style="edgeStyle=orthogonalEdgeStyle;rounded=0;orthogonalLoop=1;jettySize=auto;html=1;exitX=0.75;exitY=0;exitDx=0;exitDy=0;entryX=0;entryY=0.5;entryDx=0;entryDy=0;" parent="1" source="3SikMaQqx24hYYzQRcf_-1" target="3SikMaQqx24hYYzQRcf_-9" edge="1">
          <mxGeometry relative="1" as="geometry" />
        </mxCell>
        <mxCell id="3SikMaQqx24hYYzQRcf_-19" style="edgeStyle=orthogonalEdgeStyle;rounded=0;orthogonalLoop=1;jettySize=auto;html=1;entryX=0.5;entryY=1;entryDx=0;entryDy=0;startArrow=none;startFill=0;endArrow=none;endFill=0;" parent="1" source="3SikMaQqx24hYYzQRcf_-1" target="3SikMaQqx24hYYzQRcf_-18" edge="1">
          <mxGeometry relative="1" as="geometry" />
        </mxCell>
        <mxCell id="3SikMaQqx24hYYzQRcf_-1" value="&#xa;Empleado&#xa;&#xa;" style="rounded=0;whiteSpace=wrap;html=1;" parent="1" vertex="1">
          <mxGeometry x="390" y="450" width="100" height="40" as="geometry" />
        </mxCell>
        <mxCell id="3SikMaQqx24hYYzQRcf_-2" value="Departamento" style="rounded=0;whiteSpace=wrap;html=1;" parent="1" vertex="1">
          <mxGeometry x="390" y="630" width="100" height="40" as="geometry" />
        </mxCell>
        <mxCell id="3SikMaQqx24hYYzQRcf_-3" value="&lt;div&gt;Contrato&lt;/div&gt;&lt;div&gt;&lt;br&gt;&lt;/div&gt;" style="rounded=0;whiteSpace=wrap;html=1;" parent="1" vertex="1">
          <mxGeometry x="210" y="200" width="100" height="40" as="geometry" />
        </mxCell>
        <mxCell id="3SikMaQqx24hYYzQRcf_-20" style="edgeStyle=orthogonalEdgeStyle;rounded=0;orthogonalLoop=1;jettySize=auto;html=1;entryX=0.5;entryY=0;entryDx=0;entryDy=0;startArrow=none;startFill=0;endArrow=none;endFill=0;" parent="1" source="3SikMaQqx24hYYzQRcf_-5" target="3SikMaQqx24hYYzQRcf_-18" edge="1">
          <mxGeometry relative="1" as="geometry" />
        </mxCell>
        <mxCell id="3SikMaQqx24hYYzQRcf_-57" style="rounded=0;orthogonalLoop=1;jettySize=auto;html=1;exitX=0.25;exitY=0;exitDx=0;exitDy=0;entryX=0.5;entryY=1;entryDx=0;entryDy=0;" parent="1" source="3SikMaQqx24hYYzQRcf_-5" target="3SikMaQqx24hYYzQRcf_-54" edge="1">
          <mxGeometry relative="1" as="geometry" />
        </mxCell>
        <mxCell id="3SikMaQqx24hYYzQRcf_-58" style="rounded=0;orthogonalLoop=1;jettySize=auto;html=1;exitX=0.5;exitY=0;exitDx=0;exitDy=0;entryX=0.5;entryY=1;entryDx=0;entryDy=0;" parent="1" source="3SikMaQqx24hYYzQRcf_-5" target="3SikMaQqx24hYYzQRcf_-55" edge="1">
          <mxGeometry relative="1" as="geometry" />
        </mxCell>
        <mxCell id="3SikMaQqx24hYYzQRcf_-59" style="rounded=0;orthogonalLoop=1;jettySize=auto;html=1;exitX=0.75;exitY=0;exitDx=0;exitDy=0;entryX=0.5;entryY=1;entryDx=0;entryDy=0;" parent="1" source="3SikMaQqx24hYYzQRcf_-5" target="3SikMaQqx24hYYzQRcf_-56" edge="1">
          <mxGeometry relative="1" as="geometry" />
        </mxCell>
        <mxCell id="3SikMaQqx24hYYzQRcf_-5" value="Nomina" style="rounded=0;whiteSpace=wrap;html=1;" parent="1" vertex="1">
          <mxGeometry x="390" y="200" width="100" height="40" as="geometry" />
        </mxCell>
        <mxCell id="3SikMaQqx24hYYzQRcf_-21" style="edgeStyle=orthogonalEdgeStyle;rounded=0;orthogonalLoop=1;jettySize=auto;html=1;entryX=0.5;entryY=1;entryDx=0;entryDy=0;startArrow=none;startFill=0;endArrow=none;endFill=0;" parent="1" source="3SikMaQqx24hYYzQRcf_-6" target="3SikMaQqx24hYYzQRcf_-1" edge="1">
          <mxGeometry relative="1" as="geometry" />
        </mxCell>
        <mxCell id="3SikMaQqx24hYYzQRcf_-22" value="" style="edgeStyle=orthogonalEdgeStyle;rounded=0;orthogonalLoop=1;jettySize=auto;html=1;startArrow=none;startFill=0;endArrow=none;endFill=0;" parent="1" source="3SikMaQqx24hYYzQRcf_-6" target="3SikMaQqx24hYYzQRcf_-2" edge="1">
          <mxGeometry relative="1" as="geometry" />
        </mxCell>
        <mxCell id="3SikMaQqx24hYYzQRcf_-6" value="trabajar" style="rhombus;whiteSpace=wrap;html=1;" parent="1" vertex="1">
          <mxGeometry x="400" y="520" width="80" height="80" as="geometry" />
        </mxCell>
        <mxCell id="3SikMaQqx24hYYzQRcf_-11" style="edgeStyle=orthogonalEdgeStyle;rounded=0;orthogonalLoop=1;jettySize=auto;html=1;exitX=1;exitY=0.5;exitDx=0;exitDy=0;" parent="1" source="3SikMaQqx24hYYzQRcf_-9" edge="1">
          <mxGeometry relative="1" as="geometry">
            <mxPoint x="480" y="450" as="targetPoint" />
            <Array as="points">
              <mxPoint x="590" y="400" />
              <mxPoint x="590" y="450" />
              <mxPoint x="490" y="450" />
            </Array>
          </mxGeometry>
        </mxCell>
        <mxCell id="3SikMaQqx24hYYzQRcf_-9" value="responsable" style="rhombus;whiteSpace=wrap;html=1;" parent="1" vertex="1">
          <mxGeometry x="490" y="360" width="80" height="80" as="geometry" />
        </mxCell>
        <mxCell id="3SikMaQqx24hYYzQRcf_-18" value="recibir" style="rhombus;whiteSpace=wrap;html=1;" parent="1" vertex="1">
          <mxGeometry x="400" y="320" width="80" height="80" as="geometry" />
        </mxCell>
        <mxCell id="3SikMaQqx24hYYzQRcf_-31" style="rounded=0;orthogonalLoop=1;jettySize=auto;html=1;exitX=0;exitY=0.5;exitDx=0;exitDy=0;entryX=1;entryY=0.25;entryDx=0;entryDy=0;" parent="1" source="3SikMaQqx24hYYzQRcf_-23" target="3SikMaQqx24hYYzQRcf_-1" edge="1">
          <mxGeometry relative="1" as="geometry" />
        </mxCell>
        <mxCell id="3SikMaQqx24hYYzQRcf_-23" value="DNI" style="ellipse;whiteSpace=wrap;html=1;fontStyle=4" parent="1" vertex="1">
          <mxGeometry x="580" y="455" width="40" height="30" as="geometry" />
        </mxCell>
        <mxCell id="3SikMaQqx24hYYzQRcf_-32" style="rounded=0;orthogonalLoop=1;jettySize=auto;html=1;exitX=0;exitY=0.5;exitDx=0;exitDy=0;entryX=1;entryY=0.5;entryDx=0;entryDy=0;" parent="1" source="3SikMaQqx24hYYzQRcf_-24" target="3SikMaQqx24hYYzQRcf_-1" edge="1">
          <mxGeometry relative="1" as="geometry" />
        </mxCell>
        <mxCell id="3SikMaQqx24hYYzQRcf_-24" value="N:Seg Social" style="ellipse;whiteSpace=wrap;html=1;" parent="1" vertex="1">
          <mxGeometry x="560" y="485" width="80" height="30" as="geometry" />
        </mxCell>
        <mxCell id="3SikMaQqx24hYYzQRcf_-33" style="rounded=0;orthogonalLoop=1;jettySize=auto;html=1;exitX=0;exitY=0.5;exitDx=0;exitDy=0;entryX=1;entryY=0.75;entryDx=0;entryDy=0;" parent="1" source="3SikMaQqx24hYYzQRcf_-25" target="3SikMaQqx24hYYzQRcf_-1" edge="1">
          <mxGeometry relative="1" as="geometry" />
        </mxCell>
        <mxCell id="3SikMaQqx24hYYzQRcf_-25" value="Codigo Trabajador" style="ellipse;whiteSpace=wrap;html=1;" parent="1" vertex="1">
          <mxGeometry x="575" y="515" width="110" height="30" as="geometry" />
        </mxCell>
        <mxCell id="3SikMaQqx24hYYzQRcf_-35" style="rounded=0;orthogonalLoop=1;jettySize=auto;html=1;exitX=0;exitY=0.5;exitDx=0;exitDy=0;" parent="1" source="3SikMaQqx24hYYzQRcf_-26" edge="1">
          <mxGeometry relative="1" as="geometry">
            <mxPoint x="490" y="480" as="targetPoint" />
          </mxGeometry>
        </mxCell>
        <mxCell id="3SikMaQqx24hYYzQRcf_-26" value="Apellido" style="ellipse;whiteSpace=wrap;html=1;" parent="1" vertex="1">
          <mxGeometry x="575" y="570" width="50" height="30" as="geometry" />
        </mxCell>
        <mxCell id="3SikMaQqx24hYYzQRcf_-34" style="rounded=0;orthogonalLoop=1;jettySize=auto;html=1;exitX=0;exitY=0.5;exitDx=0;exitDy=0;entryX=1;entryY=0.75;entryDx=0;entryDy=0;" parent="1" source="3SikMaQqx24hYYzQRcf_-27" target="3SikMaQqx24hYYzQRcf_-1" edge="1">
          <mxGeometry relative="1" as="geometry" />
        </mxCell>
        <mxCell id="3SikMaQqx24hYYzQRcf_-27" value="Nombre" style="ellipse;whiteSpace=wrap;html=1;" parent="1" vertex="1">
          <mxGeometry x="590" y="540" width="50" height="30" as="geometry" />
        </mxCell>
        <mxCell id="3SikMaQqx24hYYzQRcf_-36" style="rounded=0;orthogonalLoop=1;jettySize=auto;html=1;exitX=0.5;exitY=0;exitDx=0;exitDy=0;" parent="1" source="3SikMaQqx24hYYzQRcf_-29" edge="1">
          <mxGeometry relative="1" as="geometry">
            <mxPoint x="490" y="460" as="targetPoint" />
          </mxGeometry>
        </mxCell>
        <mxCell id="3SikMaQqx24hYYzQRcf_-28" value="Telefono" style="ellipse;whiteSpace=wrap;html=1;" parent="1" vertex="1">
          <mxGeometry x="560" y="600" width="50" height="30" as="geometry" />
        </mxCell>
        <mxCell id="3SikMaQqx24hYYzQRcf_-29" value="&lt;div&gt;Direccion&lt;/div&gt;" style="ellipse;whiteSpace=wrap;html=1;" parent="1" vertex="1">
          <mxGeometry x="510" y="600" width="50" height="30" as="geometry" />
        </mxCell>
        <mxCell id="3SikMaQqx24hYYzQRcf_-41" style="rounded=0;orthogonalLoop=1;jettySize=auto;html=1;exitX=0.5;exitY=0;exitDx=0;exitDy=0;" parent="1" source="3SikMaQqx24hYYzQRcf_-37" target="3SikMaQqx24hYYzQRcf_-2" edge="1">
          <mxGeometry relative="1" as="geometry" />
        </mxCell>
        <mxCell id="3SikMaQqx24hYYzQRcf_-37" value="Codigo Departament" style="ellipse;whiteSpace=wrap;html=1;fontStyle=4" parent="1" vertex="1">
          <mxGeometry x="360" y="720" width="110" height="30" as="geometry" />
        </mxCell>
        <mxCell id="3SikMaQqx24hYYzQRcf_-42" style="rounded=0;orthogonalLoop=1;jettySize=auto;html=1;exitX=0.5;exitY=0;exitDx=0;exitDy=0;" parent="1" source="3SikMaQqx24hYYzQRcf_-38" target="3SikMaQqx24hYYzQRcf_-2" edge="1">
          <mxGeometry relative="1" as="geometry" />
        </mxCell>
        <mxCell id="3SikMaQqx24hYYzQRcf_-38" value="Nombre" style="ellipse;whiteSpace=wrap;html=1;" parent="1" vertex="1">
          <mxGeometry x="470" y="730" width="50" height="30" as="geometry" />
        </mxCell>
        <mxCell id="3SikMaQqx24hYYzQRcf_-47" value="ID" style="ellipse;whiteSpace=wrap;html=1;fontStyle=4" parent="1" vertex="1">
          <mxGeometry x="200" y="130" width="40" height="30" as="geometry" />
        </mxCell>
        <mxCell id="3SikMaQqx24hYYzQRcf_-48" value="Fecha Inicio" style="ellipse;whiteSpace=wrap;html=1;" parent="1" vertex="1">
          <mxGeometry x="250" y="120" width="50" height="30" as="geometry" />
        </mxCell>
        <mxCell id="3SikMaQqx24hYYzQRcf_-50" value="Fecha Final" style="ellipse;whiteSpace=wrap;html=1;" parent="1" vertex="1">
          <mxGeometry x="290" y="140" width="50" height="30" as="geometry" />
        </mxCell>
        <mxCell id="3SikMaQqx24hYYzQRcf_-51" style="rounded=0;orthogonalLoop=1;jettySize=auto;html=1;exitX=0.5;exitY=1;exitDx=0;exitDy=0;entryX=0.1;entryY=-0.05;entryDx=0;entryDy=0;entryPerimeter=0;" parent="1" source="3SikMaQqx24hYYzQRcf_-47" target="3SikMaQqx24hYYzQRcf_-3" edge="1">
          <mxGeometry relative="1" as="geometry" />
        </mxCell>
        <mxCell id="3SikMaQqx24hYYzQRcf_-52" style="rounded=0;orthogonalLoop=1;jettySize=auto;html=1;exitX=0.5;exitY=1;exitDx=0;exitDy=0;entryX=0.57;entryY=0.025;entryDx=0;entryDy=0;entryPerimeter=0;" parent="1" source="3SikMaQqx24hYYzQRcf_-48" target="3SikMaQqx24hYYzQRcf_-3" edge="1">
          <mxGeometry relative="1" as="geometry" />
        </mxCell>
        <mxCell id="3SikMaQqx24hYYzQRcf_-53" style="rounded=0;orthogonalLoop=1;jettySize=auto;html=1;exitX=0.5;exitY=1;exitDx=0;exitDy=0;entryX=0.85;entryY=-0.05;entryDx=0;entryDy=0;entryPerimeter=0;" parent="1" source="3SikMaQqx24hYYzQRcf_-50" target="3SikMaQqx24hYYzQRcf_-3" edge="1">
          <mxGeometry relative="1" as="geometry" />
        </mxCell>
        <mxCell id="3SikMaQqx24hYYzQRcf_-54" value="ID" style="ellipse;whiteSpace=wrap;html=1;fontStyle=4" parent="1" vertex="1">
          <mxGeometry x="380" y="110" width="40" height="30" as="geometry" />
        </mxCell>
        <mxCell id="3SikMaQqx24hYYzQRcf_-55" value="Fecha" style="ellipse;whiteSpace=wrap;html=1;" parent="1" vertex="1">
          <mxGeometry x="430" y="100" width="50" height="30" as="geometry" />
        </mxCell>
        <mxCell id="3SikMaQqx24hYYzQRcf_-56" value="Salario" style="ellipse;whiteSpace=wrap;html=1;" parent="1" vertex="1">
          <mxGeometry x="470" y="120" width="50" height="30" as="geometry" />
        </mxCell>
        <mxCell id="LTiDhhnSDu8J4aLcLkGw-2" value="1&lt;br&gt;&lt;br&gt;1" style="text;html=1;align=center;verticalAlign=middle;resizable=0;points=[];autosize=1;strokeColor=none;fillColor=none;" parent="1" vertex="1">
          <mxGeometry x="400" y="390" width="30" height="60" as="geometry" />
        </mxCell>
        <mxCell id="LTiDhhnSDu8J4aLcLkGw-3" value="N&lt;br&gt;&lt;br&gt;1" style="text;html=1;align=center;verticalAlign=middle;resizable=0;points=[];autosize=1;strokeColor=none;fillColor=none;" parent="1" vertex="1">
          <mxGeometry x="410" y="250" width="30" height="60" as="geometry" />
        </mxCell>
        <mxCell id="LTiDhhnSDu8J4aLcLkGw-4" value="0&lt;br&gt;1" style="text;html=1;align=center;verticalAlign=middle;resizable=0;points=[];autosize=1;strokeColor=none;fillColor=none;" parent="1" vertex="1">
          <mxGeometry x="460" y="410" width="30" height="40" as="geometry" />
        </mxCell>
        <mxCell id="LTiDhhnSDu8J4aLcLkGw-5" value="1&lt;br&gt;N" style="text;html=1;align=center;verticalAlign=middle;resizable=0;points=[];autosize=1;strokeColor=none;fillColor=none;" parent="1" vertex="1">
          <mxGeometry x="565" y="400" width="30" height="40" as="geometry" />
        </mxCell>
        <mxCell id="LTiDhhnSDu8J4aLcLkGw-7" value="1&lt;br&gt;1" style="text;html=1;align=center;verticalAlign=middle;resizable=0;points=[];autosize=1;strokeColor=none;fillColor=none;" parent="1" vertex="1">
          <mxGeometry x="400" y="590" width="30" height="40" as="geometry" />
        </mxCell>
        <mxCell id="LTiDhhnSDu8J4aLcLkGw-8" value="N&lt;br&gt;1" style="text;html=1;align=center;verticalAlign=middle;resizable=0;points=[];autosize=1;strokeColor=none;fillColor=none;" parent="1" vertex="1">
          <mxGeometry x="400" y="490" width="30" height="40" as="geometry" />
        </mxCell>
        <mxCell id="LTiDhhnSDu8J4aLcLkGw-15" style="rounded=0;orthogonalLoop=1;jettySize=auto;html=1;entryX=0;entryY=0.5;entryDx=0;entryDy=0;" parent="1" source="LTiDhhnSDu8J4aLcLkGw-14" target="3SikMaQqx24hYYzQRcf_-3" edge="1">
          <mxGeometry relative="1" as="geometry" />
        </mxCell>
        <mxCell id="LTiDhhnSDu8J4aLcLkGw-14" value="Codigo Categoria" style="ellipse;whiteSpace=wrap;html=1;fontStyle=0" parent="1" vertex="1">
          <mxGeometry x="90" y="160" width="110" height="30" as="geometry" />
        </mxCell>
        <mxCell id="_ezOXFQTY4S7GJUeHyxj-2" value="tiene" style="rhombus;whiteSpace=wrap;html=1;" parent="1" vertex="1">
          <mxGeometry x="275" y="260" width="80" height="80" as="geometry" />
        </mxCell>
        <mxCell id="_ezOXFQTY4S7GJUeHyxj-3" style="edgeStyle=orthogonalEdgeStyle;rounded=0;orthogonalLoop=1;jettySize=auto;html=1;entryX=0.092;entryY=1.008;entryDx=0;entryDy=0;entryPerimeter=0;startArrow=none;startFill=0;endArrow=none;endFill=0;" parent="1" source="_ezOXFQTY4S7GJUeHyxj-2" target="3SikMaQqx24hYYzQRcf_-5" edge="1">
          <mxGeometry relative="1" as="geometry" />
        </mxCell>
        <mxCell id="_ezOXFQTY4S7GJUeHyxj-4" style="edgeStyle=orthogonalEdgeStyle;rounded=0;orthogonalLoop=1;jettySize=auto;html=1;entryX=0.2;entryY=1.092;entryDx=0;entryDy=0;entryPerimeter=0;startArrow=none;startFill=0;endArrow=none;endFill=0;" parent="1" source="_ezOXFQTY4S7GJUeHyxj-2" target="3SikMaQqx24hYYzQRcf_-3" edge="1">
          <mxGeometry relative="1" as="geometry">
            <Array as="points">
              <mxPoint x="230" y="300" />
            </Array>
          </mxGeometry>
        </mxCell>
        <mxCell id="_ezOXFQTY4S7GJUeHyxj-5" value="1 N" style="text;html=1;align=center;verticalAlign=middle;resizable=0;points=[];autosize=1;strokeColor=none;fillColor=none;" parent="1" vertex="1">
          <mxGeometry x="350" y="265" width="40" height="30" as="geometry" />
        </mxCell>
        <mxCell id="_ezOXFQTY4S7GJUeHyxj-6" value="&lt;div&gt;&amp;nbsp;1 1&lt;/div&gt;" style="text;html=1;align=center;verticalAlign=middle;resizable=0;points=[];autosize=1;strokeColor=none;fillColor=none;" parent="1" vertex="1">
          <mxGeometry x="230" y="265" width="40" height="30" as="geometry" />
        </mxCell>
      </root>
    </mxGraphModel>
  </diagram>
</mxfile>
